<svg width="1200" height="1200" xmlns="http://www.w3.org/2000/svg" xmlns:xlink="http://www.w3.org/1999/xlink" version="1.1"><g transform="scale(53.99999999999999) translate(-0.8888888888888888, -0.8888888888888888)">                        <g fill="#f6f5f5"><path xmlns="http://www.w3.org/2000/svg" d="M4 5C4 4.44772 4.44772 4 5 4H7C7.55228 4 8 3.55228 8 3C8 2.44772 7.55228 2 7 2H5C3.34315 2 2 3.34315 2 5V7C2 7.55228 2.44772 8 3 8C3.55228 8 4 7.55228 4 7V5Z"/><path xmlns="http://www.w3.org/2000/svg" d="M17 2C16.4477 2 16 2.44772 16 3C16 3.55228 16.4477 4 17 4H19C19.5523 4 20 4.44772 20 5V7C20 7.55228 20.4477 8 21 8C21.5523 8 22 7.55228 22 7V5C22 3.34315 20.6569 2 19 2H17Z"/><path xmlns="http://www.w3.org/2000/svg" d="M4 17C4 16.4477 3.55228 16 3 16C2.44772 16 2 16.4477 2 17V19C2 20.6569 3.34315 22 5 22H7C7.55228 22 8 21.5523 8 21C8 20.4477 7.55228 20 7 20H5C4.44772 20 4 19.5523 4 19V17Z"/><path xmlns="http://www.w3.org/2000/svg" d="M22 17C22 16.4477 21.5523 16 21 16C20.4477 16 20 16.4477 20 17V19C20 19.5523 19.5523 20 19 20H17C16.4477 20 16 20.4477 16 21C16 21.5523 16.4477 22 17 22H19C20.6569 22 22 20.6569 22 19V17Z"/><path xmlns="http://www.w3.org/2000/svg" fill-rule="evenodd" clip-rule="evenodd" d="M6 11C5.44772 11 5 10.5523 5 10V6C5 5.44772 5.44772 5 6 5H10C10.5523 5 11 5.44772 11 6V10C11 10.5523 10.5523 11 10 11H6ZM7 7V9H9V7H7Z"/><path xmlns="http://www.w3.org/2000/svg" fill-rule="evenodd" clip-rule="evenodd" d="M5 18C5 18.5523 5.44772 19 6 19H10C10.5523 19 11 18.5523 11 18V14C11 13.4477 10.5523 13 10 13H6C5.44772 13 5 13.4477 5 14V18ZM7 17V15H9V17H7Z"/><path xmlns="http://www.w3.org/2000/svg" fill-rule="evenodd" clip-rule="evenodd" d="M14 11C13.4477 11 13 10.5523 13 10V6C13 5.44772 13.4477 5 14 5H18C18.5523 5 19 5.44772 19 6V10C19 10.5523 18.5523 11 18 11H14ZM15 7V9H17V7H15Z"/><path xmlns="http://www.w3.org/2000/svg" d="M13 13H15V15H13V13Z"/><path xmlns="http://www.w3.org/2000/svg" d="M17 15H15V17H13V19H15V17H17V15Z"/><path xmlns="http://www.w3.org/2000/svg" d="M17 15V13H19V15H17Z"/></g>        </g></svg>